#N canvas 206 282 450 300 10;
#X obj 178 72 adc~;
#X obj 218 218 dac~;
#X obj 131 135 *~;
#X obj 285 104 noise~;
#X obj 265 151 *~;
#X obj 129 173 lop~ 300;
#X obj 270 184 lop~ 300;
#X connect 0 0 2 0;
#X connect 0 1 4 0;
#X connect 2 0 5 0;
#X connect 3 0 2 1;
#X connect 3 0 4 1;
#X connect 4 0 6 0;
#X connect 5 0 1 0;
#X connect 6 0 1 1;
