#N canvas 762 315 450 300 10;
#X obj 161 172 lop~ 100;
#X obj 158 207 dac~;
#X obj 244 149 env~ 64;
#X obj 244 231 s \$0-sig;
#X obj 141 76 metro 50;
#X obj 261 46 random 12;
#X obj 248 81 + 36;
#X obj 244 110 mtof;
#X obj 149 52 loadbang;
#X obj 88 38 bng 15 250 50 0 empty empty empty 17 7 0 10 -262144 -1
-1;
#X obj 166 126 osc~ 300;
#X obj 358 88 r \$0-add;
#X obj 310 209 / 10;
#X obj 303 179 - 96;
#X connect 0 0 1 0;
#X connect 0 0 1 1;
#X connect 2 0 13 0;
#X connect 4 0 5 0;
#X connect 5 0 6 0;
#X connect 6 0 7 0;
#X connect 7 0 10 1;
#X connect 8 0 4 0;
#X connect 9 0 4 0;
#X connect 10 0 0 0;
#X connect 10 0 2 0;
#X connect 11 0 6 1;
#X connect 12 0 3 0;
#X connect 13 0 12 0;
